<svg width="597" height="777" viewBox="0 0 597 777" fill="none" xmlns="http://www.w3.org/2000/svg">
<path fill-rule="evenodd" clip-rule="evenodd" d="M0 0V361.89L159.658 149.216L0 0ZM39.925 99.5092L107.215 162.414L39.925 252.089V99.5092ZM196.4 598.961L212.877 505.54L157.507 514.268L112.58 447.041L21.2877 480.654L98.3597 549.201L113.346 599.844L157.507 588.487V670.562L196.4 598.961ZM168.79 351.247L127.726 398.558L223.521 436.397L168.79 351.247ZM596.055 0L436.397 149.216L596.055 361.89V0ZM488.818 162.425L556.151 99.5092V252.089L488.818 162.414V162.425ZM427.925 514.268L372.534 505.54L389.011 598.961L427.925 670.562V588.487L472.075 599.844L487.03 549.201L564.123 480.654L472.831 447.041L427.925 514.268ZM468.329 398.558L427.275 351.247L372.534 436.397L468.329 398.558Z" fill="#444753"/>
<path fill-rule="evenodd" clip-rule="evenodd" d="M292.78 200.668H292.621L176.369 180.945L21.2881 410.458L255.442 293.993L234.548 626.273L185.331 693.073L292.706 777L400.081 693.073L350.874 626.273L329.981 293.993L564.124 410.458L409.032 180.945L292.78 200.668ZM232.77 694.436H352.631L292.706 746.399L232.781 694.447L232.77 694.436Z" fill="#444753"/>
</svg>
